# xmcd
#
# Track frame offsets:
#	150
#	13845
#	26614
#	41234
#	54911
#	67836
#	80168
#	97083
#	111607
#	126126
#	142109
#	154023
#
# Disc length: 2282 seconds
#
# Revision: 0
# Processed by: cddbd v1.5.2PL0 Copyright (c) Steve Scherf et al.
# Submitted via: audiograbber 1.83.01
#
DISCID=aa08e80c
DTITLE=Danny Shirley - The Pyramid Collection Disc 2
DYEAR=2005
DGENRE=Country
TTITLE0=Deep Down
TTITLE1=I Make The Living
TTITLE2=Going To California
TTITLE3=Live To Ride
TTITLE4=Sweet Lisa
TTITLE5=Kankakee Line
TTITLE6=I Dont't Have The Heart
TTITLE7=Redman
TTITLE8=Pinball
TTITLE9=Far From Over
TTITLE10=Home To Mama
TTITLE11=Southbound
EXTD=
EXTT0=
EXTT1=
EXTT2=
EXTT3=
EXTT4=
EXTT5=
EXTT6=
EXTT7=
EXTT8=
EXTT9=
EXTT10=
EXTT11=
PLAYORDER=
